<?xml version="1.0" encoding="UTF-8"?>
<svg id="Layer_1" data-name="Layer 1" xmlns="http://www.w3.org/2000/svg" viewBox="0 0 36.84 32.81">
  <defs>
    <style>
      .cls-1 {
        fill: #f2a851;
      }

      .cls-2 {
        fill: #e6e5e1;
      }
    </style>
  </defs>
  <path class="cls-2" d="M19.59,15.17c3.9,0,7.8,0,11.62.08,3.33.08,5.04.16,5.52,1.14.49,1.06-.57,2.11-2.92,4.55-2.84,2.92-5.93,5.85-8.94,8.86-1.46,1.46-2.19,2.19-3.09,2.6-.89.41-1.87.41-3.9.41-2.52,0-5.04-.08-7.64-.08-3.33-.08-5.04-.16-5.52-1.14-.49-1.06.57-2.11,2.93-4.55,3.9-3.9,8.04-7.88,11.94-11.86h0Z"/>
  <path class="cls-1" d="M11.89,3.01c1.46-1.46,2.19-2.19,3.09-2.6.89-.41,1.87-.41,3.9-.41,2.52,0,5.04.08,7.64.08,3.33.08,5.04.16,5.52,1.14.49,1.06-.57,2.11-2.92,4.55-3.82,3.82-7.96,7.8-11.86,11.78-3.9,0-7.8,0-11.62-.08-3.33-.08-5.04-.16-5.52-1.14-.49-1.06.57-2.11,2.92-4.55,2.84-2.76,5.85-5.77,8.86-8.78h-.01Z"/>
</svg>